<svg width="360" height="800" xmlns="http://www.w3.org/2000/svg">
        <rect width="100%" height="100%" fill="#FFFFFF" />
        <rect x="0" y="0" width="360" height="24" fill="#F5F5F5" />
                <text x="16" y="16" font-family="Arial" font-size="12" fill="#000000">12:30</text>
                <circle cx="340" cy="12" r="6" fill="#000000" /><rect x="0" y="744" width="360" height="56" fill="#F5F5F5" />
                <rect x="156" y="752" width="48" height="40" rx="20" fill="#6200EE33" /><text x="20" y="80" font-family="Arial" font-size="24" font-weight="bold" fill="#000000">Library</text>
             <rect x="20" y="100" width="80" height="32" rx="16" fill="#6200EE" />
             <text x="35" y="120" font-family="Arial" font-size="14" fill="#FFFFFF">Songs</text>
             <text x="120" y="120" font-family="Arial" font-size="14" fill="#666666">Albums</text>

             <rect x="20" y="160" width="48" height="48" rx="4" fill="#F5F5F5" />
            <text x="80" y="180" font-family="Arial" font-size="16" fill="#000000">Liked Songs</text>
            <text x="80" y="200" font-family="Arial" font-size="14" fill="#666666">Auto Playlist</text>
             <rect x="20" y="230" width="48" height="48" rx="4" fill="#F5F5F5" />
            <text x="80" y="250" font-family="Arial" font-size="16" fill="#000000">Recent Hits</text>
            <text x="80" y="270" font-family="Arial" font-size="14" fill="#666666">Playlist</text>
             <rect x="20" y="300" width="48" height="48" rx="4" fill="#F5F5F5" />
            <text x="80" y="320" font-family="Arial" font-size="16" fill="#000000">Jazz Vibes</text>
            <text x="80" y="340" font-family="Arial" font-size="14" fill="#666666">Playlist</text>
        <text x="10" y="790" font-family="Arial" font-size="10" fill="#666666">Mock: Library (light)</text>
    </svg>